<?xml version="1.0" encoding="utf-8"?><svg style="position: absolute; width: 0; height: 0;" xmlns="http://www.w3.org/2000/svg" xmlns:xlink="http://www.w3.org/1999/xlink"><symbol fill="none" viewBox="0 0 140 108" id="envelope" xmlns="http://www.w3.org/2000/svg"><path d="M122.909.729H17.119C7.677.729 0 8.405 0 17.849V90.15c0 9.444 7.676 17.12 17.12 17.12h105.76c9.444 0 17.12-7.676 17.12-17.12V17.879c.029-9.444-7.647-17.15-17.091-17.15zm9.299 89.422c0 5.128-4.172 9.3-9.299 9.3H17.119c-5.126 0-9.298-4.172-9.298-9.3V17.879c0-5.128 4.172-9.299 9.299-9.299h105.76c5.127 0 9.299 4.171 9.299 9.299V90.15h.029z" fill="#fff" fill-opacity=".4"/><path d="M88.293 53.102l34.24-30.705a3.93 3.93 0 00.289-5.533 3.93 3.93 0 00-5.533-.29l-47.217 42.38-9.211-8.227c-.03-.03-.058-.058-.058-.087a5.786 5.786 0 00-.637-.55L22.681 16.544a3.905 3.905 0 00-5.533.319 3.905 3.905 0 00.318 5.532l34.646 30.967-34.5 32.299a3.926 3.926 0 00-.174 5.532 4 4 0 002.867 1.246 3.92 3.92 0 002.665-1.043l35.022-32.762 9.501 8.487a3.906 3.906 0 005.215-.029l9.761-8.748 34.819 33.081a3.889 3.889 0 002.694 1.072 3.906 3.906 0 002.839-1.217c1.478-1.564 1.42-4.055-.145-5.533L88.293 53.102z" fill="#fff" fill-opacity=".4"/></symbol><symbol viewBox="0 0 12 20" id="fb"><path d="M11 .004L8.405 0C5.492 0 3.609 1.932 3.609 4.922v2.27H1.001a.408.408 0 00-.407.407v3.288c0 .226.182.408.407.408H3.61v8.297c0 .226.183.408.408.408H7.42a.408.408 0 00.408-.408v-8.297h3.049a.408.408 0 00.408-.408l.001-3.288a.409.409 0 00-.408-.408h-3.05V5.268c0-.925.22-1.394 1.425-1.394L11 3.873a.408.408 0 00.407-.408V.412A.408.408 0 0011 .004z"/></symbol><symbol viewBox="0 0 22 22" id="instagram" xmlns="http://www.w3.org/2000/svg"><g clip-path="url(#cclip0_24_93)" fill="#66C05D"><path d="M15.125 0h-8.25A6.876 6.876 0 000 6.875v8.25A6.876 6.876 0 006.875 22h8.25A6.876 6.876 0 0022 15.125v-8.25A6.876 6.876 0 0015.125 0zm4.813 15.125a4.818 4.818 0 01-4.813 4.813h-8.25a4.818 4.818 0 01-4.813-4.813v-8.25a4.818 4.818 0 014.813-4.813h8.25a4.818 4.818 0 014.813 4.813v8.25z"/><path d="M11 5.5a5.5 5.5 0 100 11 5.5 5.5 0 000-11zm0 8.938A3.442 3.442 0 017.562 11 3.441 3.441 0 0111 7.562 3.441 3.441 0 0114.438 11 3.442 3.442 0 0111 14.438zm5.913-8.618a.733.733 0 100-1.465.733.733 0 000 1.465z"/></g><defs><clipPath id="cclip0_24_93"><path fill="#fff" d="M0 0h22v22H0z"/></clipPath></defs></symbol><symbol viewBox="0 0 29 15" id="vk"><path d="M27.895 13.547a1.776 1.776 0 00-.095-.171c-.487-.822-1.417-1.83-2.79-3.026l-.028-.027-.015-.014-.014-.013h-.015c-.623-.557-1.017-.931-1.183-1.123-.302-.365-.37-.735-.204-1.109.116-.283.555-.88 1.314-1.793.399-.484.715-.871.949-1.163 1.684-2.1 2.414-3.44 2.19-4.025l-.087-.136c-.059-.082-.21-.158-.452-.226-.244-.069-.555-.08-.935-.034l-4.205.027a.58.58 0 00-.292.007l-.19.041-.073.034-.058.041a.635.635 0 00-.161.144.925.925 0 00-.146.24 21.77 21.77 0 01-1.562 3.08c-.36.565-.691 1.056-.993 1.471-.302.415-.555.72-.76.917a5.27 5.27 0 01-.554.472c-.166.119-.292.17-.38.15l-.248-.054a.936.936 0 01-.329-.335 1.433 1.433 0 01-.168-.534 5.54 5.54 0 01-.05-.555 10.89 10.89 0 01.007-.657c.01-.283.014-.474.014-.575 0-.347.008-.723.022-1.129l.037-.965c.01-.237.014-.488.014-.753s-.017-.472-.05-.623a2.034 2.034 0 00-.154-.438.753.753 0 00-.3-.328 1.752 1.752 0 00-.488-.185C14.947.07 14.29.01 13.492.002c-1.811-.018-2.974.091-3.49.329-.205.1-.39.237-.555.41-.175.2-.2.31-.073.329.584.082.997.278 1.24.588l.089.164c.068.12.136.33.204.63.068.301.112.634.131 1a9.988 9.988 0 010 1.71 18.75 18.75 0 01-.138 1.11 2.13 2.13 0 01-.197.642 2.676 2.676 0 01-.176.301.244.244 0 01-.073.069 1.158 1.158 0 01-.394.069c-.136 0-.302-.064-.496-.192a3.429 3.429 0 01-.606-.527 7.07 7.07 0 01-.708-.938 16.059 16.059 0 01-.818-1.423l-.234-.398A33.34 33.34 0 016.6 2.76a20.95 20.95 0 01-.672-1.417.91.91 0 00-.35-.438L5.505.864A1.022 1.022 0 005.27.748a1.63 1.63 0 00-.336-.09l-4 .028c-.41 0-.687.087-.833.26l-.058.082a.42.42 0 00-.044.22c0 .1.03.223.088.369A44.004 44.004 0 001.993 5.34c.686 1.196 1.283 2.158 1.789 2.888s1.022 1.42 1.547 2.067a31.7 31.7 0 001.044 1.246c.17.182.304.32.402.41l.365.329c.234.219.577.481 1.03.787.452.306.953.607 1.503.904.55.296 1.19.538 1.92.725.73.187 1.44.262 2.132.226h1.68c.34-.028.598-.128.773-.301l.058-.069a.88.88 0 00.11-.253 1.31 1.31 0 00.05-.376c-.01-.393.023-.746.095-1.061.073-.315.156-.552.249-.712.093-.16.197-.294.314-.403.116-.11.2-.176.248-.199a.976.976 0 01.117-.048c.233-.073.508-.002.825.213.316.214.613.479.89.793.278.315.611.669 1 1.061.39.393.73.684 1.023.876l.292.165c.195.11.448.21.76.3.31.092.583.115.817.07l3.738-.055c.37 0 .657-.058.86-.172.205-.114.327-.24.366-.376a.997.997 0 00.007-.466 1.633 1.633 0 00-.102-.362z"/></symbol><symbol viewBox="0 0 22 15" id="youtube"><path d="M17.43 0H4.57C2.045 0 0 1.971 0 4.402v6.196C0 13.027 2.046 15 4.57 15h12.86c2.524 0 4.57-1.971 4.57-4.402V4.402C22 1.972 19.954 0 17.43 0zm-3.09 7.801l-6.015 2.765c-.16.074-.346-.039-.346-.21V4.654c0-.174.19-.286.351-.208l6.016 2.938a.229.229 0 01-.005.417z"/></symbol></svg>